<?xml version="1.0" encoding="utf-8"?>
<!-- Generator: Adobe Illustrator 23.0.0, SVG Export Plug-In . SVG Version: 6.00 Build 0)  -->
<svg version="1.1" id="_x31_" xmlns="http://www.w3.org/2000/svg" xmlns:xlink="http://www.w3.org/1999/xlink" x="0px" y="0px"
	 viewBox="0 0 841.89 595.28" style="enable-background:new 0 0 841.89 595.28;" xml:space="preserve">
<style type="text/css">
	.st0{fill-rule:evenodd;clip-rule:evenodd;fill:#CCCCCC;}
</style>
<g>
	<path class="st0" d="M686.09,198.72c0-3.18-2.67-5.78-5.92-5.78h-92.63c-3.26,0-5.92,2.6-5.92,5.78v2.78l52.2,22.13l52.28-22.17
		V198.72z"/>
	<path class="st0" d="M633.81,229.77l-52.2-22.13v52.46c0,3.18,2.67,5.78,5.92,5.78h92.63c3.26,0,5.92-2.6,5.92-5.78V207.6
		L633.81,229.77z"/>
</g>
<path class="st0" d="M220.74,213.84c0,9.87-8.2,17.86-18.32,17.86c-10.12,0-18.32-8-18.32-17.86c0-9.87,8.2-17.86,18.32-17.86
	C212.54,195.98,220.74,203.98,220.74,213.84L220.74,213.84z M242.61,214.16c0-21.64-17.99-39.19-40.18-39.19
	s-40.18,17.55-40.18,39.19c0,6.2,1.47,12.06,4.1,17.27l3.98,6.31l32.2,51.03l33.67-53.36l0.93-1.48
	C240.61,228.13,242.61,221.38,242.61,214.16z"/>
<path class="st0" d="M502.5,190.4v76.12c0,1.21-1.01,2.2-2.25,2.2h-53.03c-1.24,0-2.25-0.99-2.25-2.2V190.4
	c0-1.21,1.01-2.2,2.25-2.2h53.03C501.49,188.2,502.5,189.19,502.5,190.4L502.5,190.4z M473.73,274.8c3.66,0,6.63,2.89,6.63,6.46
	c0,3.57-2.97,6.47-6.63,6.47c-3.66,0-6.63-2.89-6.63-6.47C467.1,277.69,470.07,274.8,473.73,274.8L473.73,274.8z M440.71,291.88
	h66.05c3.44,0,6.25-2.74,6.25-6.1V184.05c0-3.35-2.81-6.1-6.25-6.1h-66.05c-3.44,0-6.25,2.74-6.25,6.1v101.73
	C434.45,289.14,437.27,291.88,440.71,291.88z"/>
<path class="st0" d="M340.43,189.85c2.46,0.18,4.86,0.55,7.2,1.09c3.46,3.59,6.45,8.86,8.7,15.29c-5.02-0.91-10.36-1.48-15.9-1.65
	V189.85L340.43,189.85z M333.05,189.86v14.71c-5.45,0.18-10.7,0.75-15.64,1.64c2.25-6.43,5.23-11.7,8.7-15.29
	C328.35,190.41,330.67,190.05,333.05,189.86L333.05,189.86z M315.19,213.91c5.48-1.2,11.5-1.96,17.85-2.18v19.25h-20.08
	C313.21,224.92,313.98,219.16,315.19,213.91L315.19,213.91z M307.31,216.07c-0.9,4.72-1.48,9.72-1.67,14.92h-15.07
	c0.2-2.19,0.56-4.34,1.07-6.43C295.31,221.17,300.72,218.26,307.31,216.07L307.31,216.07z M340.43,211.72
	c6.44,0.21,12.55,0.97,18.11,2.19c1.21,5.25,1.98,11,2.22,17.07h-20.33V211.72L340.43,211.72z M368.09,230.98
	c-0.2-5.19-0.77-10.2-1.67-14.92c6.59,2.19,11.99,5.1,15.67,8.48c0.51,2.09,0.87,4.24,1.07,6.43H368.09L368.09,230.98z
	 M340.43,238.18h20.36c-0.2,6.41-0.98,12.49-2.26,18c-5.55,1.22-11.67,1.98-18.11,2.19V238.18L340.43,238.18z M340.43,265.53
	c5.54-0.17,10.88-0.74,15.9-1.65c-2.25,6.43-5.23,11.7-8.7,15.29c-2.34,0.54-4.74,0.91-7.2,1.09V265.53L340.43,265.53z
	 M333.05,238.18v20.18c-6.35-0.22-12.37-0.98-17.85-2.18c-1.27-5.52-2.06-11.6-2.26-18H333.05L333.05,238.18z M333.05,265.52v14.71
	c-2.37-0.19-4.69-0.55-6.95-1.07c-3.46-3.59-6.45-8.86-8.7-15.29C322.35,264.77,327.6,265.34,333.05,265.52L333.05,265.52z
	 M305.6,238.18c0.16,5.53,0.75,10.85,1.71,15.85c-6.59-2.19-11.99-5.11-15.67-8.48c-0.58-2.39-0.97-4.85-1.14-7.37H305.6
	L305.6,238.18z M368.12,238.18h15.11c-0.18,2.52-0.56,4.98-1.14,7.37c-3.68,3.38-9.08,6.29-15.67,8.48
	C367.37,249.03,367.96,243.71,368.12,238.18L368.12,238.18z M296.28,257.17c4.2,7.31,10.41,13.37,17.9,17.46
	c-1.95-3.76-3.63-8-4.97-12.62C304.48,260.7,300.13,259.07,296.28,257.17L296.28,257.17z M314.18,195.47
	c-7.49,4.09-13.71,10.15-17.9,17.46c3.85-1.9,8.2-3.54,12.94-4.84C310.56,203.47,312.23,199.22,314.18,195.47L314.18,195.47z
	 M364.51,208.08c4.73,1.31,9.08,2.94,12.93,4.84c-4.2-7.31-10.41-13.37-17.9-17.46C361.49,199.22,363.17,203.47,364.51,208.08
	L364.51,208.08z M364.51,262.01c-1.34,4.62-3.02,8.86-4.97,12.62c7.49-4.09,13.71-10.15,17.9-17.46
	C373.59,259.07,369.24,260.7,364.51,262.01L364.51,262.01z M391.83,235.05c0-29.61-24.61-53.61-54.97-53.61
	c-30.36,0-54.97,24-54.97,53.61s24.61,53.61,54.97,53.61C367.22,288.66,391.83,264.65,391.83,235.05z"/>
</svg>
